<svg enable-background="new 0 0 160 48" height="48" viewBox="0 0 160 48" width="160" xmlns="http://www.w3.org/2000/svg"><g fill="#fff"><path d="m39.71154 48 89.09005-7.77385h-96.80046z"/><path d="m40.96805 34.09081v1.17387h5.9613v-26.47899h-5.9613v1.17508c-1.7977-1.15408-3.41016-1.82498-5.61636-1.82498-6.78204 0-11.93425 6.23349-11.93425 13.8906 0 7.65826 5.15221 13.88824 11.93425 13.88824 2.20621 0 3.81866-.66747 5.61636-1.82382zm-11.40987-12.06441c0-4.1903 2.4482-7.51012 5.79351-7.51012 3.34756 0 5.70778 3.31982 5.70778 7.51012 0 4.19257-2.36022 7.51239-5.70778 7.51239-3.34531 0-5.79351-3.31982-5.79351-7.51239z"/><path d="m83.65525 35.915c2.932 0 5.06651-1.63482 5.06651-1.63482v.98485h5.96136v-26.47898h-5.96136v15.55461c0 2.91835-1.9886 5.38165-4.88479 5.38165-2.89387 0-4.88254-2.4633-4.88254-5.38165v-15.55461h-5.96248v15.55461c.00001 6.38289 4.33038 11.57434 10.6633 11.57434z"/><path d="m149.33678 8.13579c-2.93207 0-5.06657 1.63481-5.06657 1.63481v-.98491h-5.96136v26.47898h5.96136v-15.55461c0-2.9172 1.9886-5.38166 4.88478-5.38166 2.89386 0 4.88254 2.46445 4.88254 5.38166v15.55461h5.96247v-15.55461c0-6.38282-4.33038-11.57427-10.66322-11.57427z"/><path d="m21.62284 13.59169c0-6.29303-5.07696-11.40398-11.31837-11.40398h-10.30447v33.07653h6.23569v-10.25811h4.41023l7.63395 10.25811h7.80413l-9.22443-12.37836c2.87421-2.07936 4.76327-5.46215 4.76327-9.29419zm-11.31837 5.12963h-4.06878v-10.2535h4.06878c2.8001 0 5.08853 2.29646 5.08853 5.12387 0 2.83551-2.28843 5.12963-5.08853 5.12963z"/><path d="m99.98602 26.49389c-.00228 5.91261 4.41722 9.44362 8.86213 9.44362 1.65646 0 3.9553-.54612 5.83286-1.6663l-3.9298-5.27199c-.53596.36642-1.21194.65111-1.99448.65111-.97236 0-2.80936-.75031-2.80936-3.24862v-11.33161h5.09782v-6.28484h-5.09782v-6.59755h-5.96248l.00114 6.59755h-3.15314v6.28484h3.15314v11.42379z"/><path d="m56.46719 24.38793 8.79147 10.87654h8.35282l-11.86132-14.06681 10.22569-12.41098h-8.3574l-7.15126 9.22419v-18.01087h-6.13849v35.26447h6.13849z"/><path d="m124.52081 8.11371c-6.90009 0-11.84855 6.11214-11.84855 13.9116 0 8.20089 6.21245 13.91397 12.44124 13.91397 3.14388 0 7.17322-1.08754 10.55789-5.9278l-5.26567-3.06543c-4.07336 6.05152-10.85886 2.98025-11.64365-3.0712l17.17206.00464c1.47009-9.51129-4.63016-15.76578-11.41332-15.76578zm-5.5319 10.4938c1.25478-6.202 9.57401-6.55789 10.73623 0z"/></g></svg>